<?xml version="1.0" encoding="UTF-8"?>
<svg xmlns="http://www.w3.org/2000/svg" xmlns:xlink="http://www.w3.org/1999/xlink" width="192pt" height="192pt" viewBox="0 0 192 192" version="1.1">
<g id="surface11373">
<path style=" stroke:none;" d="M 48 18 L 48 126 L 12 126 L 12 150 L 24 150 L 24 138 L 120 138 L 120 150 L 132 150 L 132 126 L 60 126 L 60 30 L 156 30 L 156 162 L 168 162 L 168 18 Z M 156 162 L 144 162 L 144 150 L 132 150 L 132 162 L 36 162 L 36 174 L 156 174 Z M 36 162 L 36 150 L 24 150 L 24 162 Z M 36 162 "/>
</g>
</svg>
