<?xml version="1.0" encoding="UTF-8"?>
<svg xmlns="http://www.w3.org/2000/svg" xmlns:xlink="http://www.w3.org/1999/xlink" width="192pt" height="192pt" viewBox="0 0 192 192" version="1.1">
<g id="surface12714">
<path style=" stroke:none;" d="M 78 24 L 78 60 L 114 60 L 114 24 Z M 18 48 L 18 78 L 48 78 L 48 48 Z M 144 48 L 144 78 L 174 78 L 174 48 Z M 60 78 L 60 90 L 0 90 L 0 156 L 192 156 L 192 90 L 132 90 L 132 78 Z M 72 90 L 120 90 L 120 144 L 72 144 Z M 12 102 L 60 102 L 60 144 L 12 144 Z M 132 102 L 180 102 L 180 144 L 132 144 Z M 132 102 "/>
</g>
</svg>
