<?xml version="1.0" encoding="UTF-8"?>
<svg xmlns="http://www.w3.org/2000/svg" xmlns:xlink="http://www.w3.org/1999/xlink" width="192pt" height="192pt" viewBox="0 0 192 192" version="1.1">
<g id="surface12740">
<path style=" stroke:none;fill-rule:nonzero;fill:rgb(3.137255%,32.156864%,58.431375%);fill-opacity:1;" d="M 24 132 L 24 60 L 36 60 L 36 48 L 48 48 L 48 36 L 60 36 L 60 24 L 132 24 L 132 36 L 144 36 L 144 48 L 156 48 L 156 60 L 168 60 L 168 132 L 156 132 L 156 144 L 144 144 L 144 156 L 132 156 L 132 168 L 60 168 L 60 156 L 48 156 L 48 144 L 36 144 L 36 132 Z M 24 132 "/>
<path style=" stroke:none;fill-rule:nonzero;fill:rgb(90.196079%,89.803922%,89.803922%);fill-opacity:1;" d="M 138 72 L 126 72 L 126 48 L 114 48 L 114 60 L 78 60 L 78 48 L 66 48 L 66 72 L 54 72 L 54 108 L 66 108 L 66 120 L 78 120 L 78 132 L 60 132 L 60 144 L 78 144 L 78 168 L 114 168 L 114 120 L 126 120 L 126 108 L 138 108 Z M 138 72 "/>
<path style=" stroke:none;fill-rule:nonzero;fill:rgb(90.196079%,89.803922%,89.803922%);fill-opacity:1;" d="M 48 120 L 60 120 L 60 132 L 48 132 Z M 48 120 "/>
</g>
</svg>
