<?xml version="1.0" encoding="UTF-8"?>
<svg id="Calque_1" data-name="Calque 1" xmlns="http://www.w3.org/2000/svg" viewBox="0 0 1920 488.84">
  <defs>
    <style>
      .cls-1 {
        fill: #fff;
        stroke-width: 0px;
      }
    </style>
  </defs>
  <g>
    <path class="cls-1" d="M316.79,0h-168.48v27.4h168.48V0Z"/>
    <path class="cls-1" d="M316.79,461.44h-168.48v27.4h168.48v-27.4Z"/>
    <path class="cls-1" d="M407.65,65.68H57.44v27.4h350.22v-27.4Z"/>
    <path class="cls-1" d="M407.65,395.57H57.44v27.4h350.22v-27.4Z"/>
    <path class="cls-1" d="M450.06,131.65H15.03v27.4h435.03v-27.4Z"/>
    <path class="cls-1" d="M450.06,329.59H15.03v27.4h435.03v-27.4Z"/>
    <path class="cls-1" d="M465.09,197.63H0v27.4h465.09v-27.4Z"/>
    <path class="cls-1" d="M465.09,263.61H0v27.4h465.09v-27.4Z"/>
  </g>
  <path class="cls-1" d="M693.88,365.96c-56.94,0-95.43-30.37-98.12-77.39h35.12c2.53,30.73,24.9,47.65,62.99,47.65,42.98,0,47.61-23.37,47.61-33.41,0-28.06-20.27-33.09-64.68-44.11-37.71-9.43-72.6-23.73-72.6-64.14s29.51-61.26,78.93-61.26,83.8,26.75,87.35,69.82h-35.16c-3.93-26.59-21.49-40.08-52.19-40.08-27.64,0-44.15,10.48-44.15,28.05,0,24.76,20.1,29.76,50.52,37.33l3.11.78c45.06,11.49,83.97,21.41,83.97,72.03,0,31.29-21.73,64.73-82.72,64.73Z"/>
  <rect class="cls-1" x="805.57" y="202.41" width="30.68" height="158.81"/>
  <path class="cls-1" d="M1064.66,361.22v-100.71c0-19.16-3.44-36.89-28.36-36.89-22.79,0-37.52,15.97-37.52,40.67v96.92h-31v-100.71c0-19.16-3.48-36.89-28.68-36.89-22.79,0-37.52,15.97-37.52,40.67v96.92h-30.68v-158.81h30.68v20.83h2.51l.3-.45c7.67-11.36,21.99-24.8,47.02-24.8,20.88,0,34.94,9.08,41.77,26.98l.25.66.76.13h1.36l.31-.38c14.51-18.71,30.95-27.39,51.81-27.39,31.4,0,48,18.34,48,53.05v110.18h-31Z"/>
  <path class="cls-1" d="M1127.16,416.13v-213.72h31v18.93h2.47l.31-.41c6.46-8.62,21.28-22.95,48.62-22.95,42.12,0,70.41,33.75,70.41,83.98s-28.3,83.98-70.41,83.98c-27.72,0-42.31-14.7-48.55-23.47l-.31-.43-.59-.09h-1.96v74.16h-31ZM1203.25,222.68c-27.62,0-44.78,22.72-44.78,59.29s17.16,59.29,44.78,59.29c31.58,0,45.72-29.78,45.72-59.29s-14.14-59.29-45.72-59.29Z"/>
  <rect class="cls-1" x="1305.47" y="138.03" width="31" height="223.19"/>
  <rect class="cls-1" x="1369.23" y="202.41" width="30.68" height="158.81"/>
  <path class="cls-1" d="M1504.33,365.96c-46.84,0-78.3-33.75-78.3-83.98s31.34-83.98,77.99-83.98c39.09,0,67.38,23.93,72.14,60.98h-30.63c-1.76-17.58-13.5-36.29-41.21-36.29-35.1,0-47.61,30.63-47.61,59.29s12.51,59.29,47.61,59.29,40.13-26.11,41.21-37.55h30.67c-3.12,36.66-32.66,62.24-71.89,62.24Z"/>
  <rect class="cls-1" x="1601.19" y="202.41" width="30.68" height="158.81"/>
  <path class="cls-1" d="M1846.02,363.82c-47.79,0-78.66-32.96-78.66-83.98s28.83-81.56,77.11-81.56,75.18,30.72,75.54,88.85h-122.31v1.02c0,30.1,19.49,50.98,47.39,50.98,24.01,0,40.35-16.16,41.81-31.2h30.27c-4.75,33.96-32.65,55.89-71.14,55.89ZM1844.46,219.6c-27.1,0-46.77,18.57-46.77,44.15v1.02l1.02.2h90.96v-1.02c0-26.19-18.59-44.35-45.21-44.35Z"/>
  <path class="cls-1" d="M1719.92,361.22c-27.37,0-40.11-12.53-40.11-39.44l-.03-2.8v-91.47h-23.36v-24.68h.24c10.2,0,17.98-.99,22.83-5.88,5.95-5.98,7.05-17.48,6.95-35.33v-9.6h24.34v50.81h47.63v24.69h-47.63v88.51l-.04.3c-.09,5.76,1.35,10.01,4.39,13.1,5.51,5.59,15.44,6.06,24.32,6.06l12.29-.06c2.58,0,4.61.05,6.4.16v25.63h-38.22Z"/>
  <rect class="cls-1" x="804.63" y="138.46" width="32.55" height="30.68" transform="translate(974.71 -667.11) rotate(90)"/>
  <rect class="cls-1" x="1368.29" y="138.46" width="32.55" height="30.68" transform="translate(1538.36 -1230.76) rotate(90)"/>
  <rect class="cls-1" x="1600.25" y="138.46" width="32.55" height="30.68" transform="translate(1770.33 -1462.73) rotate(90)"/>
  <polygon class="cls-1" points="1830.21 181.38 1830.21 178.91 1856.72 129.23 1889.31 129.23 1889.31 131.84 1855.33 181.38 1830.21 181.38"/>
</svg>