<?xml version="1.0" encoding="UTF-8"?>
<svg id="Calque_1" data-name="Calque 1" xmlns="http://www.w3.org/2000/svg" viewBox="0 0 1920 488.58">
  <defs>
    <style>
      .cls-1 {
        fill: #010101;
        stroke-width: 0px;
      }
    </style>
  </defs>
  <g>
    <path class="cls-1" d="M316.62,0h-168.39v27.38h168.39V0Z"/>
    <path class="cls-1" d="M316.62,461.2h-168.39v27.38h168.39v-27.38Z"/>
    <path class="cls-1" d="M407.44,65.64H57.41v27.38h350.03v-27.38Z"/>
    <path class="cls-1" d="M407.44,395.36H57.41v27.38h350.03v-27.38Z"/>
    <path class="cls-1" d="M449.82,131.58H15.02v27.38h434.8v-27.38Z"/>
    <path class="cls-1" d="M449.82,329.42H15.02v27.38h434.8v-27.38Z"/>
    <path class="cls-1" d="M464.84,197.53H0v27.38h464.84v-27.38Z"/>
    <path class="cls-1" d="M464.84,263.47H0v27.38h464.84v-27.38Z"/>
  </g>
  <path class="cls-1" d="M693.5,366.78c-57.59,0-96.49-30.82-99.1-78.53l-.05-.86h37.13l.06.75c2.41,30.23,24.41,46.87,61.96,46.87,42.03,0,46.57-22.64,46.57-32.37,0-27.24-20.01-32.21-63.87-43.09-38.09-9.52-73.34-24-73.34-65.1,0-38.98,29.87-62.25,79.91-62.25s84.84,27.18,88.35,70.94l.07.88h-37.14l-.1-.7c-3.8-26.11-21.02-39.35-51.18-39.35-26.99,0-43.1,10.1-43.1,27.01,0,23.94,19.78,28.87,49.72,36.32l3.11.77c45.45,11.59,84.69,21.59,84.69,72.98,0,31.77-21.99,65.72-83.7,65.72Z"/>
  <rect class="cls-1" x="804.11" y="201.28" width="32.71" height="160.77"/>
  <path class="cls-1" d="M1063.07,362.05v-101.68c0-21.52-4.65-35.84-27.33-35.84s-36.48,15.55-36.48,39.63v97.89h-33.03v-101.68c0-21.52-4.7-35.84-27.65-35.84s-36.48,15.55-36.48,39.63v97.89h-32.71v-160.77h32.71v20.82h.94l.06-.09c7.75-11.47,22.32-25.15,47.77-25.15,21.34,0,35.71,9.3,42.71,27.63l.05.13h.87l.06-.08c14.64-18.88,31.33-27.68,52.51-27.68,32.05,0,49,18.69,49,54.05v111.14h-33.03Z"/>
  <path class="cls-1" d="M1125.54,416.93v-215.65h33.03v18.92h.94l.06-.08c6.51-8.69,21.58-23.26,49.35-23.26,42.71,0,71.4,34.14,71.4,84.96s-28.69,84.96-71.4,84.96c-28.17,0-43.01-14.97-49.35-23.88l-.06-.09h-.94v74.12h-33.03ZM1202.61,223.59c-26.98,0-43.73,22.31-43.73,58.24s16.76,58.24,43.73,58.24c30.86,0,44.68-29.25,44.68-58.24s-13.82-58.24-44.68-58.24Z"/>
  <rect class="cls-1" x="1303.75" y="136.94" width="33.03" height="225.11"/>
  <rect class="cls-1" x="1367.47" y="201.28" width="32.71" height="160.77"/>
  <path class="cls-1" d="M1503.53,366.78c-47.42,0-79.28-34.14-79.28-84.96s31.74-84.96,78.97-84.96c39.7,0,68.41,24.36,73.15,62.07l.12.92h-32.69l-.07-.74c-1.66-17.18-13.08-35.53-40.19-35.53-34.34,0-46.57,30.09-46.57,58.24s12.23,58.24,46.57,58.24,39.18-25.73,40.19-36.79l.07-.74h32.7l-.07.89c-3.07,37.31-33.04,63.37-72.89,63.37Z"/>
  <rect class="cls-1" x="1599.31" y="201.28" width="32.71" height="160.77"/>
  <path class="cls-1" d="M1845.03,364.65c-48.38,0-79.64-33.35-79.64-84.96s29.19-82.54,78.09-82.54,76.22,31.13,76.52,90.03v.82s-122.25,0-122.25,0v.2c0,29.28,19.06,49.73,46.35,49.73,23.52,0,39.48-15.8,40.78-30.44l.07-.75h32.36l-.13.93c-4.73,34.61-33.05,56.97-72.15,56.97ZM1887.64,263.81v-.2c0-25.38-18.16-43.1-44.16-43.1s-45.72,18.13-45.72,43.1v.2h89.89Z"/>
  <path class="cls-1" d="M1719,362.05c-28.05,0-41.11-12.85-41.11-40.44l-.03-2.79v-90.41h-23.35v-26.72h1.27c9.92.01,17.48-.93,22.08-5.56,5.7-5.73,6.75-17.02,6.65-34.59v-10.63h26.37v50.78h47.61v26.72h-47.61v87.44l-.04.41c-.08,5.35,1.26,9.38,4.1,12.27,5.23,5.31,14.91,5.75,23.58,5.75l12.28-.06c2.7,0,4.8.05,6.66.18l.77.05v27.6h-39.22Z"/>
  <rect class="cls-1" x="803.18" y="137.36" width="34.58" height="32.71" transform="translate(974.19 -666.75) rotate(90)"/>
  <rect class="cls-1" x="1366.53" y="137.36" width="34.58" height="32.71" transform="translate(1537.54 -1230.1) rotate(90)"/>
  <rect class="cls-1" x="1598.37" y="137.36" width="34.58" height="32.71" transform="translate(1769.38 -1461.94) rotate(90)"/>
  <polygon class="cls-1" points="1828.21 182.31 1828.21 178.56 1855.11 128.14 1889.32 128.14 1889.32 132.08 1854.88 182.31 1828.21 182.31"/>
</svg>