<?xml version="1.0" encoding="UTF-8"?>
<svg xmlns="http://www.w3.org/2000/svg" xmlns:xlink="http://www.w3.org/1999/xlink" width="192pt" height="192pt" viewBox="0 0 192 192" version="1.1">
<g id="surface12626">
<path style=" stroke:none;" d="M 54 18 L 54 30 L 138 30 L 138 114 L 54 114 L 54 30 L 42 30 L 42 138 L 54 138 L 54 126 L 150 126 L 150 18 Z M 54 138 L 54 150 L 138 150 L 138 138 Z M 78 54 L 78 66 L 114 66 L 114 54 Z M 78 78 L 78 90 L 114 90 L 114 78 Z M 54 162 L 54 174 L 138 174 L 138 162 Z M 54 162 "/>
</g>
</svg>
